<?xml version="1.0" encoding="iso-8859-1"?>
<!-- Generator: Adobe Illustrator 19.0.0, SVG Export Plug-In . SVG Version: 6.00 Build 0)  -->
<svg version="1.1" id="Capa_1" xmlns="http://www.w3.org/2000/svg" xmlns:xlink="http://www.w3.org/1999/xlink" x="0px" y="0px"
	 viewBox="0 0 512 512" style="enable-background:new 0 0 512 512;" xml:space="preserve">
<path style="fill:#D96330;" d="M74.98,437.019C26.628,388.667,0,324.38,0,256c-0.001-68.38,26.628-132.668,74.98-181.02
	S187.62-0.001,256,0c68.38,0,132.667,26.628,181.019,74.98S512,187.619,511.999,255.999l0,0
	c0.001,68.38-26.628,132.668-74.98,181.02S324.38,512,256,512S123.333,485.372,74.98,437.019z"/>
<path style="fill:#CDEBFC;" d="M120.198,391.803C85.405,357.01,63.856,308.974,63.856,256c0-51.324,19.986-99.575,56.277-135.866
	S204.676,63.856,256,63.856C361.949,63.855,448.145,150.052,448.144,256l0,0c0,51.324-19.986,99.575-56.277,135.866
	S307.324,448.144,256,448.144C203.026,448.144,154.99,426.595,120.198,391.803z"/>
<path style="fill:#EBF6FC;" d="M292.199,313.702l-93.895-93.895c-3.86-3.86-5.354-9.491-3.917-14.756
	c1.437-5.266,5.586-9.356,10.871-10.718l126.503-32.616c5.21-1.343,10.743,0.167,14.548,3.971c3.804,3.804,5.315,9.337,3.971,14.546
	l-32.609,126.51c-1.361,5.286-5.452,9.435-10.717,10.873C301.691,319.057,296.059,317.561,292.199,313.702z"/>
<path style="fill:#FF6A7A;" d="M198.307,198.307c-1.89,1.89-3.283,4.276-3.973,6.955l-32.609,126.51
	c-1.343,5.21,0.167,10.742,3.971,14.546c3.805,3.805,9.338,5.316,14.548,3.971l126.503-32.616c2.679-0.69,5.063-2.084,6.953-3.974
	L198.307,198.307z"/>
<path style="fill:#A2400E;" d="M437.023,74.984L74.984,437.023C123.336,485.373,187.621,512,256,512
	c68.38,0.001,132.668-26.628,181.02-74.98S512.001,324.38,512,256C512,187.621,485.373,123.336,437.023,74.984z"/>
<path style="fill:#A7DDFA;" d="M391.806,120.201L120.201,391.806c34.792,34.79,82.827,56.338,135.799,56.338
	c51.324,0,99.575-19.986,135.866-56.277S448.144,307.324,448.144,256C448.144,203.028,426.597,154.993,391.806,120.201z"/>
<path style="fill:#CDEBFC;" d="M350.283,180.235c1.343-5.208-0.167-10.739-3.968-14.543L245.252,266.755l46.948,46.947
	c3.86,3.86,9.492,5.354,14.757,3.917c5.265-1.437,9.356-5.587,10.717-10.873L350.283,180.235z"/>
<path style="fill:#FE2925;" d="M165.693,346.314c0.001,0.001,0.002,0.002,0.003,0.004c3.805,3.805,9.338,5.316,14.548,3.971
	l126.503-32.616c2.679-0.69,5.063-2.084,6.953-3.973l-57.696-57.696L165.693,346.314z"/>
<g>
</g>
<g>
</g>
<g>
</g>
<g>
</g>
<g>
</g>
<g>
</g>
<g>
</g>
<g>
</g>
<g>
</g>
<g>
</g>
<g>
</g>
<g>
</g>
<g>
</g>
<g>
</g>
<g>
</g>
</svg>
